<svg width="23" height="23" viewBox="0 0 23 23" fill="none" xmlns="http://www.w3.org/2000/svg">
<path d="M11.5003 1.91699C6.21033 1.91699 1.91699 6.21033 1.91699 11.5003C1.91699 16.7903 6.21033 21.0837 11.5003 21.0837C16.7903 21.0837 21.0837 16.7903 21.0837 11.5003C21.0837 6.21033 16.7903 1.91699 11.5003 1.91699ZM8.90324 15.6116L5.46283 12.1712C5.3741 12.0824 5.30372 11.9771 5.2557 11.8612C5.20769 11.7453 5.18297 11.621 5.18297 11.4955C5.18297 11.3701 5.20769 11.2458 5.2557 11.1299C5.30372 11.014 5.3741 10.9086 5.46283 10.8199C5.55155 10.7312 5.65688 10.6608 5.7728 10.6128C5.88873 10.5648 6.01298 10.5401 6.13845 10.5401C6.26393 10.5401 6.38817 10.5648 6.5041 10.6128C6.62002 10.6608 6.72535 10.7312 6.81408 10.8199L9.58366 13.5799L16.177 6.98658C16.3562 6.80739 16.5992 6.70672 16.8526 6.70672C17.106 6.70672 17.3491 6.80739 17.5282 6.98658C17.7074 7.16576 17.8081 7.40879 17.8081 7.6622C17.8081 7.91561 17.7074 8.15864 17.5282 8.33783L10.2545 15.6116C10.1658 15.7004 10.0605 15.7709 9.94459 15.819C9.82866 15.8671 9.70438 15.8918 9.57887 15.8918C9.45336 15.8918 9.32908 15.8671 9.21314 15.819C9.09721 15.7709 8.9919 15.7004 8.90324 15.6116Z" fill="white"/>
</svg>
