<svg width="16" height="20" viewBox="0 0 16 20" fill="none" xmlns="http://www.w3.org/2000/svg">
<path d="M11 5V5.625M11 8.125V8.75M11 11.25V11.875M11 14.375V15M5 10.625H8.5M5 12.5H7M2.25 4.375C1.836 4.375 1.5 4.795 1.5 5.3125V7.83417C1.8045 8.05331 2.05742 8.3689 2.23328 8.74912C2.40914 9.12935 2.50174 9.5608 2.50174 10C2.50174 10.4392 2.40914 10.8706 2.23328 11.2509C2.05742 11.6311 1.8045 11.9467 1.5 12.1658V14.6875C1.5 15.205 1.836 15.625 2.25 15.625H13.75C14.164 15.625 14.5 15.205 14.5 14.6875V12.1658C14.1955 11.9467 13.9426 11.6311 13.7667 11.2509C13.5909 10.8706 13.4983 10.4392 13.4983 10C13.4983 9.5608 13.5909 9.12935 13.7667 8.74912C13.9426 8.3689 14.1955 8.05331 14.5 7.83417V5.3125C14.5 4.795 14.164 4.375 13.75 4.375H2.25Z" stroke="#19CE83" stroke-width="1.25" stroke-linecap="round" stroke-linejoin="round"/>
</svg>
