<svg width="30" height="29" viewBox="0 0 30 29" fill="none" xmlns="http://www.w3.org/2000/svg">
<path d="M18.8968 19.9617L15.2153 16.3246C15.0807 16.1917 14.9217 16.1676 14.8361 16.1676C14.7505 16.1676 14.5915 16.1917 14.457 16.3246L10.7632 19.9738C10.3473 20.3846 9.69908 21.0492 7.53418 21.0492L12.0719 25.5201C12.7599 26.1989 13.6925 26.5802 14.6649 26.5802C15.6373 26.5802 16.5699 26.1989 17.2579 25.5201L21.8078 21.0371C20.6948 21.0371 19.7652 20.8196 18.8968 19.9617ZM10.7632 9.02631L14.457 12.6755C14.5548 12.7721 14.7016 12.8326 14.8361 12.8326C14.9707 12.8326 15.1174 12.7721 15.2153 12.6755L18.8724 9.06256C19.7408 8.1684 20.7315 7.96298 21.8445 7.96298L17.2946 3.48007C16.6066 2.80122 15.6739 2.41992 14.7016 2.41992C13.7292 2.41992 12.7966 2.80122 12.1086 3.48007L7.57087 7.9509C9.72354 7.9509 10.384 8.65173 10.7632 9.02631Z" fill="#2B2828"/>
<path d="M25.8195 11.902L23.0675 9.17114H21.5264C20.866 9.17114 20.2055 9.43697 19.7529 9.90822L16.0836 13.5332C15.7411 13.8716 15.2886 14.0407 14.836 14.0407C14.37 14.0342 13.924 13.8528 13.5885 13.5332L9.8947 9.87197C9.42992 9.41281 8.79391 9.14697 8.1212 9.14697H6.32323L3.52232 11.9261C2.83518 12.6058 2.44922 13.5272 2.44922 14.4878C2.44922 15.4484 2.83518 16.3698 3.52232 17.0495L6.32323 19.8286H8.13343C8.79391 19.8286 9.42992 19.5628 9.90693 19.1036L13.6007 15.4545C13.9432 15.1161 14.3957 14.947 14.8483 14.947C15.3008 14.947 15.7534 15.1161 16.0958 15.4545L19.7774 19.0916C20.2422 19.5507 20.8782 19.8166 21.5509 19.8166H23.092L25.844 17.0857C26.534 16.3938 26.9188 15.4602 26.9142 14.4889C26.9096 13.5175 26.5161 12.5875 25.8195 11.902Z" fill="#2B2828"/>
</svg>
