<svg width="29" height="29" viewBox="0 0 29 29" fill="none" xmlns="http://www.w3.org/2000/svg">
<path d="M18.6688 19.9617L15.0317 16.3246C14.8988 16.1917 14.7417 16.1676 14.6571 16.1676C14.5725 16.1676 14.4154 16.1917 14.2825 16.3246L10.6334 19.9738C10.2225 20.3846 9.58211 21.0492 7.44336 21.0492L11.9263 25.5201C12.606 26.1989 13.5273 26.5802 14.4879 26.5802C15.4486 26.5802 16.3699 26.1989 17.0496 25.5201L21.5446 21.0371C20.445 21.0371 19.5267 20.8196 18.6688 19.9617ZM10.6334 9.02631L14.2825 12.6755C14.3792 12.7721 14.5242 12.8326 14.6571 12.8326C14.79 12.8326 14.935 12.7721 15.0317 12.6755L18.6446 9.06256C19.5025 8.1684 20.4813 7.96298 21.5809 7.96298L17.0859 3.48007C16.4062 2.80122 15.4848 2.41992 14.5242 2.41992C13.5636 2.41992 12.6422 2.80122 11.9625 3.48007L7.47961 7.9509C9.60628 7.9509 10.2588 8.65173 10.6334 9.02631Z" fill="#51D2BB"/>
<path d="M25.5079 11.902L22.7891 9.17114H21.2666C20.6141 9.17114 19.9616 9.43697 19.5145 9.90822L15.8895 13.5332C15.5512 13.8716 15.1041 14.0407 14.657 14.0407C14.1966 14.0342 13.756 13.8528 13.4245 13.5332L9.77536 9.87197C9.31619 9.41281 8.68786 9.14697 8.02328 9.14697H6.24703L3.47994 11.9261C2.8011 12.6058 2.4198 13.5272 2.4198 14.4878C2.4198 15.4484 2.8011 16.3698 3.47994 17.0495L6.24703 19.8286H8.03536C8.68786 19.8286 9.31619 19.5628 9.78744 19.1036L13.4366 15.4545C13.7749 15.1161 14.222 14.947 14.6691 14.947C15.1162 14.947 15.5633 15.1161 15.9016 15.4545L19.5387 19.0916C19.9979 19.5507 20.6262 19.8166 21.2908 19.8166H22.8133L25.532 17.0857C26.2137 16.3938 26.5938 15.4602 26.5893 14.4889C26.5848 13.5175 26.196 12.5875 25.5079 11.902Z" fill="#51D2BB"/>
</svg>
