<svg width="10" height="10" viewBox="0 0 10 10" fill="none" xmlns="http://www.w3.org/2000/svg">
<g clip-path="url(#clip0_110_349)">
<path d="M5.00004 0.833496C2.70004 0.833496 0.833374 2.70016 0.833374 5.00016C0.833374 7.30016 2.70004 9.16683 5.00004 9.16683C7.30004 9.16683 9.16671 7.30016 9.16671 5.00016C9.16671 2.70016 7.30004 0.833496 5.00004 0.833496ZM3.87087 6.78766L2.37504 5.29183C2.33646 5.25325 2.30586 5.20746 2.28499 5.15706C2.26411 5.10665 2.25337 5.05263 2.25337 4.99808C2.25337 4.94352 2.26411 4.8895 2.28499 4.8391C2.30586 4.7887 2.33646 4.74291 2.37504 4.70433C2.41362 4.66575 2.45941 4.63515 2.50981 4.61428C2.56022 4.5934 2.61424 4.58265 2.66879 4.58265C2.72335 4.58265 2.77737 4.5934 2.82777 4.61428C2.87817 4.63515 2.92396 4.66575 2.96254 4.70433L4.16671 5.90433L7.03337 3.03766C7.11128 2.95976 7.21695 2.91599 7.32712 2.91599C7.4373 2.91599 7.54297 2.95976 7.62087 3.03766C7.69878 3.11557 7.74255 3.22124 7.74255 3.33141C7.74255 3.44159 7.69878 3.54726 7.62087 3.62516L4.45837 6.78766C4.41983 6.82629 4.37404 6.85693 4.32363 6.87784C4.27323 6.89875 4.21919 6.90951 4.16462 6.90951C4.11005 6.90951 4.05602 6.89875 4.00561 6.87784C3.95521 6.85693 3.90942 6.82629 3.87087 6.78766Z" fill="#3B8CD7"/>
</g>
<defs>
<clipPath id="clip0_110_349">
<rect width="10" height="10" fill="white"/>
</clipPath>
</defs>
</svg>
