<svg width="14" height="14" viewBox="0 0 14 14" fill="none" xmlns="http://www.w3.org/2000/svg">
<path d="M4.54996 1.1665H9.44996C11.3166 1.1665 12.8333 2.68317 12.8333 4.54984V9.44984C12.8333 10.3472 12.4768 11.2077 11.8423 11.8422C11.2078 12.4767 10.3473 12.8332 9.44996 12.8332H4.54996C2.68329 12.8332 1.16663 11.3165 1.16663 9.44984V4.54984C1.16663 3.65252 1.52308 2.79196 2.15758 2.15746C2.79208 1.52296 3.65264 1.1665 4.54996 1.1665ZM4.43329 2.33317C3.87634 2.33317 3.34219 2.55442 2.94837 2.94825C2.55454 3.34207 2.33329 3.87622 2.33329 4.43317V9.5665C2.33329 10.7273 3.27246 11.6665 4.43329 11.6665H9.56663C10.1236 11.6665 10.6577 11.4453 11.0515 11.0514C11.4454 10.6576 11.6666 10.1235 11.6666 9.5665V4.43317C11.6666 3.27234 10.7275 2.33317 9.56663 2.33317H4.43329ZM10.0625 3.20817C10.2558 3.20817 10.4413 3.28499 10.5781 3.42174C10.7148 3.55848 10.7916 3.74395 10.7916 3.93734C10.7916 4.13072 10.7148 4.31619 10.5781 4.45294C10.4413 4.58968 10.2558 4.6665 10.0625 4.6665C9.86907 4.6665 9.68361 4.58968 9.54686 4.45294C9.41011 4.31619 9.33329 4.13072 9.33329 3.93734C9.33329 3.74395 9.41011 3.55848 9.54686 3.42174C9.68361 3.28499 9.86907 3.20817 10.0625 3.20817ZM6.99996 4.08317C7.77351 4.08317 8.51537 4.39046 9.06235 4.93744C9.60933 5.48442 9.91663 6.22629 9.91663 6.99984C9.91663 7.77339 9.60933 8.51525 9.06235 9.06223C8.51537 9.60921 7.77351 9.9165 6.99996 9.9165C6.22641 9.9165 5.48455 9.60921 4.93756 9.06223C4.39058 8.51525 4.08329 7.77339 4.08329 6.99984C4.08329 6.22629 4.39058 5.48442 4.93756 4.93744C5.48455 4.39046 6.22641 4.08317 6.99996 4.08317ZM6.99996 5.24984C6.53583 5.24984 6.09071 5.43421 5.76252 5.7624C5.43433 6.09059 5.24996 6.53571 5.24996 6.99984C5.24996 7.46397 5.43433 7.90909 5.76252 8.23727C6.09071 8.56546 6.53583 8.74984 6.99996 8.74984C7.46409 8.74984 7.90921 8.56546 8.2374 8.23727C8.56558 7.90909 8.74996 7.46397 8.74996 6.99984C8.74996 6.53571 8.56558 6.09059 8.2374 5.7624C7.90921 5.43421 7.46409 5.24984 6.99996 5.24984Z" fill="#464646"/>
</svg>
