<svg width="141" height="141" viewBox="0 0 141 141" fill="none" xmlns="http://www.w3.org/2000/svg">
<path d="M88.125 123.375H76.375V111.625H88.125V123.375ZM76.375 82.25H64.625V111.625H76.375V82.25ZM123.375 70.5H111.625V94H123.375V70.5ZM111.625 58.75H99.875V70.5H111.625V58.75ZM41.125 70.5H29.375V82.25H41.125V70.5ZM29.375 58.75H17.625V70.5H29.375V58.75ZM70.5 29.375H82.25V17.625H70.5V29.375ZM26.4375 26.4375V44.0625H44.0625V26.4375H26.4375ZM52.875 52.875H17.625V17.625H52.875V52.875ZM26.4375 96.9375V114.562H44.0625V96.9375H26.4375ZM52.875 123.375H17.625V88.125H52.875V123.375ZM96.9375 26.4375V44.0625H114.562V26.4375H96.9375ZM123.375 52.875H88.125V17.625H123.375V52.875ZM111.625 111.625V94H88.125V105.75H99.875V123.375H123.375V111.625H111.625ZM99.875 70.5H76.375V82.25H99.875V70.5ZM76.375 58.75H41.125V70.5H52.875V82.25H64.625V70.5H76.375V58.75ZM82.25 52.875V41.125H70.5V29.375H58.75V52.875H82.25ZM39.6562 30.8438H30.8438V39.6562H39.6562V30.8438ZM39.6562 101.344H30.8438V110.156H39.6562V101.344ZM110.156 30.8438H101.344V39.6562H110.156V30.8438Z" fill="#2B2828"/>
</svg>
