<svg width="15" height="15" viewBox="0 0 15 15" fill="none" xmlns="http://www.w3.org/2000/svg">
<g opacity="0.8">
<path d="M12.6562 4.21869H10.6055C10.9007 3.84585 11.0432 3.37474 11.0042 2.90076C10.9652 2.42678 10.7475 1.98535 10.3952 1.66584C10.0429 1.34633 9.58238 1.17263 9.10685 1.17991C8.63132 1.18718 8.17632 1.37489 7.83398 1.70502C7.69589 1.84481 7.58291 2.00734 7.5 2.18549C7.41709 2.00734 7.30411 1.84481 7.16602 1.70502C6.82368 1.37489 6.36868 1.18718 5.89315 1.17991C5.41762 1.17263 4.95709 1.34633 4.60482 1.66584C4.25254 1.98535 4.03484 2.42678 3.9958 2.90076C3.95676 3.37474 4.09929 3.84585 4.39453 4.21869H2.34375C2.09511 4.21869 1.85665 4.31746 1.68084 4.49328C1.50502 4.66909 1.40625 4.90755 1.40625 5.15619V7.03119C1.40625 7.27983 1.50502 7.51829 1.68084 7.6941C1.85665 7.86992 2.09511 7.96869 2.34375 7.96869V11.7187C2.34375 11.9673 2.44252 12.2058 2.61834 12.3816C2.79415 12.5574 3.03261 12.6562 3.28125 12.6562H11.7188C11.9674 12.6562 12.2058 12.5574 12.3817 12.3816C12.5575 12.2058 12.6562 11.9673 12.6562 11.7187V7.96869C12.9049 7.96869 13.1433 7.86992 13.3192 7.6941C13.495 7.51829 13.5938 7.27983 13.5938 7.03119V5.15619C13.5938 4.90755 13.495 4.66909 13.3192 4.49328C13.1433 4.31746 12.9049 4.21869 12.6562 4.21869ZM8.49609 2.36713C8.58137 2.27302 8.68487 2.19721 8.80033 2.14431C8.91579 2.09141 9.04079 2.06252 9.16775 2.0594C9.29471 2.05627 9.42098 2.07897 9.53891 2.12613C9.65683 2.17328 9.76394 2.2439 9.85374 2.3337C9.94354 2.4235 10.0142 2.53061 10.0613 2.64854C10.1085 2.76646 10.1312 2.89273 10.128 3.01969C10.1249 3.14665 10.096 3.27165 10.0431 3.38711C9.99023 3.50257 9.91442 3.60607 9.82031 3.69135C9.5332 3.98432 8.69531 4.14252 7.98633 4.20111C8.04492 3.49213 8.20312 2.65424 8.49609 2.36713ZM5.17969 2.36713C5.35618 2.19322 5.59402 2.09574 5.8418 2.09574C6.08958 2.09574 6.32741 2.19322 6.50391 2.36713C6.79688 2.65424 6.95508 3.49213 7.01367 4.20111C6.30469 4.14252 5.4668 3.98432 5.17969 3.69135C5.00578 3.51485 4.90829 3.27702 4.90829 3.02924C4.90829 2.78146 5.00578 2.54363 5.17969 2.36713ZM2.34375 5.15619H7.03125V7.03119H2.34375V5.15619ZM3.28125 7.96869H7.03125V11.7187H3.28125V7.96869ZM11.7188 11.7187H7.96875V7.96869H11.7188V11.7187ZM12.6562 7.03119H7.96875V5.15619H12.6562V7.03119Z" fill="#19CE83" stroke="#19CE83" stroke-width="0.2"/>
</g>
</svg>
